<svg xmlns="http://www.w3.org/2000/svg" width="24" height="24" viewBox="0 0 24 24">
    <g fill="none" fill-rule="evenodd">
        <g fill="#FFF">
            <g>
                <g>
                    <g>
                        <g>
                            <g>
                                <path fill-opacity="0" d="M0 0H24V24H0z" transform="translate(-978.000000, -437.000000) translate(0.000000, 60.000000) translate(762.000000, 92.000000) translate(32.000000, 197.000000) translate(0.000000, 72.000000) translate(184.000000, 16.000000)"/>
                                <g>
                                    <path d="M10.25 0l.977.007.604.012.561.018.52.023.48.03.65.052.387.04.18.022.338.048.305.051.276.056.246.059.22.062.193.066.17.068.148.072c.045.024.088.048.127.073l.107.076.047.039.082.079.066.08c.01.014.02.027.028.041l.046.083.02.041.03.084.02.085.021.062c.024.049.056.113.065.193l.036.116.156.458.217.586.261.672.288.712.199.476 1.811-.259.229 1.732-.229.046c-.144.03-.288.049-.433.065l-.431.045.213.326c.394.63.795 1.437.912 2.442l.024.279.087 5.682H18.75V9.333c0-.787-.34-1.411-.884-2.17l-.316-.43-.084-.086c-.031-.036-.066-.079-.102-.132-2.134.214-4.464.318-7.114.318-2.642 0-4.964-.103-7.092-.316l-.054.119c-.023.04-.052.082-.093.123l-.307.407c-.533.722-.89 1.33-.946 2.051l-.008.2V15H0V9.333C0 8.045.512 7.09 1.124 6.268l-.19-.02c-.145-.014-.289-.028-.433-.05l-.217-.037-.229-.046.231-1.732 1.812.259.226-.539.147-.368.208-.537.25-.67.417-1.191c.022-.046.046-.094.075-.145l.038-.061.045-.063.053-.064.1-.097.083-.065.097-.065.113-.064.13-.064.15-.063.172-.062.193-.06.218-.057.244-.055.132-.027.285-.05.316-.048.17-.023.363-.042.398-.038.433-.033.471-.03.51-.023.55-.018.593-.013.637-.006L10.25 0zM15 12.75c.866 0 1.357.57 1.412 1.142l.005.108v1h-1.75v-.5H5.75v.5H4v-1c0-.586.388-1.177 1.25-1.244l.167-.006H15zM2.732 8.976l2.495.132-.091 1.747-2.497-.132.093-1.747zm14.87-.041l.093 1.747-2.497.132-.093-1.747 2.497-.132zm-7.359-7.102c-.226-.006-.445-.01-.657-.012h-.617l-.575.011-.535.02-.494.028-.231.016-.631.056-.368.042-.325.044-.408.067-.31.062-.152.037-.316.921-.192.543-.223.587c-.079.2-.163.403-.251.605 4.182.298 8.332.299 12.666-.001l-.114-.258-.222-.516-.207-.503-.095-.24-.17-.446-.137-.386c-.02-.058-.037-.113-.053-.164-.042-.033-.074-.076-.096-.124l-.195-.043-.248-.044-.143-.022-.322-.045-.37-.043-.635-.06-.475-.037-.513-.031-.548-.027-.58-.02-.612-.013-.646-.004z" transform="translate(-978.000000, -437.000000) translate(0.000000, 60.000000) translate(762.000000, 92.000000) translate(32.000000, 197.000000) translate(0.000000, 72.000000) translate(184.000000, 16.000000) translate(1.750000, 4.500000)"/>
                                </g>
                            </g>
                        </g>
                    </g>
                </g>
            </g>
        </g>
    </g>
</svg>
