<svg xmlns="http://www.w3.org/2000/svg" width="24" height="24" viewBox="0 0 24 24">
    <g fill="none" fill-rule="evenodd">
        <g>
            <g>
                <g>
                    <g>
                        <g>
                            <path fill="#FFF" fill-opacity="0" d="M0 0H24V24H0z" transform="translate(-978.000000, -365.000000) translate(0.000000, 60.000000) translate(762.000000, 92.000000) translate(32.000000, 197.000000) translate(184.000000, 16.000000)"/>
                            <path fill="#000" d="M3.544 7.5c.423.001.838.064 1.236.222.317.126.609.303.846.565l.12.14.227.293c.03.037.033.075.018.124-.104.334-.205.67-.306 1.004l-.436 1.434-.47 1.542c-.04.131-.077.263-.12.393-.008.022-.032.048-.053.054-.227.07-.46.114-.695.12-.568.012-1.135.014-1.703.02-.056 0-.068 0-.07.04V16.5H0v-9h3.544zm17.016.006c.015.03.026.051.034.074l.487 1.272c.137.362.272.725.41 1.086l.422 1.094.545 1.437.325.85.5 1.303c.146.383.29.768.438 1.15.091.24.186.478.279.716v.01c-.826 0-1.653 0-2.48.002-.044 0-.062-.014-.076-.055l-.521-1.44c-.044-.12-.044-.12-.171-.12h-3.15c.026-.067.048-.129.073-.19l.309-.769.299-.749c.014-.037.04-.035.07-.035h1.97l-.093-.25-.438-1.216c-.137-.38-.276-.758-.412-1.138-.009-.025-.009-.06.001-.086.118-.303.238-.606.359-.907.161-.404.324-.806.486-1.21l.307-.768.012-.027.015-.034zM16.713 7.5l2.374.001.028.004-.195.474c-.13.323-.26.647-.393.97l-.58 1.412-.616 1.503c-.191.47-.38.94-.572 1.41l-.572 1.391c-.174.427-.347.855-.522 1.282-.07.172-.143.342-.213.514-.013.031-.03.038-.061.038h-2.32c-.032 0-.047-.01-.057-.04-.129-.415-.259-.83-.39-1.243l-.475-1.501-.313-.982c-.152-.475-.305-.951-.468-1.43l-1.731 5.196H7.294c-.041 0-.065-.01-.087-.047-.23-.392-.463-.783-.695-1.174-.163-.276-.325-.552-.49-.827-.023-.04-.029-.077-.013-.123.125-.373.248-.748.372-1.122l.32-.973.502-1.521.017-.04 1.353 2.643.115-.347.313-.946.384-1.17.48-1.454.486-1.47c.043-.129.087-.258.128-.388.01-.028.022-.04.054-.04.598.001 1.197.002 1.795 0 .041 0 .048.021.057.05l.354 1.156.322 1.047.318 1.037.304.984.464 1.504.012.032c.029-.062.055-.115.078-.17l.51-1.18.536-1.242.505-1.166c.098-.226.195-.454.294-.68l.389-.89c.064-.146.126-.294.188-.44.01-.026.02-.042.054-.042zM2.203 9.246c-.052 0-.063 0-.065.037v2.38l.042.002c.261 0 .522.003.783 0 .21-.004.419-.02.623-.085.315-.1.526-.316.62-.647.1-.343.105-.691-.026-1.03-.108-.28-.298-.468-.568-.56-.195-.067-.397-.092-.6-.095-.27-.004-.54-.001-.809-.002z" transform="translate(-978.000000, -365.000000) translate(0.000000, 60.000000) translate(762.000000, 92.000000) translate(32.000000, 197.000000) translate(184.000000, 16.000000)"/>
                        </g>
                    </g>
                </g>
            </g>
        </g>
    </g>
</svg>
